<svg width="32" height="25" viewBox="0 0 32 25" fill="none" xmlns="http://www.w3.org/2000/svg">
<path d="M7.8241 18.6715L7.65507 18.6067L7.48373 18.6651L3.53682 20.0111L3.87463 16.2444L3.89342 16.0349L3.75675 15.8749C2.37937 14.2631 1.4375 12.1169 1.4375 9.95978C1.4375 4.77989 6.08098 0.5 11.9136 0.5C17.7462 0.5 22.3897 4.77989 22.3897 9.95978C22.3897 15.1397 17.7462 19.4196 11.9136 19.4196C10.461 19.4196 9.07931 19.1527 7.8241 18.6715Z" stroke="white"/>
<path d="M28.0834 20.3096L28.0646 20.1L28.2013 19.9401C29.5786 18.3282 30.5205 16.182 30.5205 14.025C30.5205 10.2776 28.098 7.0081 24.5439 5.47976C25.7255 9.22943 25.027 13.0904 24.16 15.0411C21.8856 20.1585 17.1867 21.637 14.0918 21.8097C15.7797 22.8644 17.8297 23.4847 20.0444 23.4847C21.497 23.4847 22.8787 23.2179 24.1339 22.7367L24.3029 22.6719L24.4743 22.7303L28.4212 24.0762L28.0834 20.3096Z" stroke="white"/>
<circle cx="6.42576" cy="10.3663" r="1.42283" fill="#C7E7DC"/>
<circle cx="12.1172" cy="10.3663" r="1.42283" fill="#C7E7DC"/>
<circle cx="17.8086" cy="10.3663" r="1.42283" fill="#C7E7DC"/>
</svg>
