<svg width="27" height="23" viewBox="0 0 27 23" fill="none" xmlns="http://www.w3.org/2000/svg">
<g id="Group 1884">
<path id="Vector 16" d="M0.882812 22.4454V9.46045L8.61791 15.2222M0.882812 22.4454H25.9747M0.882812 22.4454C3.90356 19.6246 5.59717 18.043 8.61791 15.2222M0.882812 22.4454L8.61791 15.2222M25.9747 22.4454V9.46045L18.1224 15.2222M25.9747 22.4454L18.1224 15.2222M8.61791 15.2222L13.3344 18.7354L18.1224 15.2222" stroke="white"/>
<path id="Rectangle 334" d="M20.8803 13.1704V4.04432C20.8803 3.24495 20.2323 2.59692 19.4329 2.59692H6.85755C6.05818 2.59692 5.41016 3.24494 5.41016 4.04432V12.7994" stroke="white"/>
<path id="Vector 17" d="M0.882812 9.27497L5.33219 5.93598M26.1634 9.27497L20.8809 5.48313M9.78157 2.59699L11.826 1.06279C12.6688 0.430307 13.8246 0.418053 14.6806 1.03252L16.8601 2.59699" stroke="white"/>
<path id="Vector" fill-rule="evenodd" clip-rule="evenodd" d="M11.29 8.22666C11.29 7.85741 11.323 7.46224 11.3888 7.14805C11.5404 6.40306 11.883 5.66779 12.644 5.41839C13.4577 5.15278 14.2483 5.56738 14.6238 6.24759C14.7556 6.48728 14.9005 6.83386 14.9401 7.11242C15.0521 7.90923 15.085 8.72224 14.9236 9.51582C14.7951 10.1474 14.5777 10.6689 14.0276 11.0252C13.8332 11.1516 13.5927 11.2358 13.3489 11.2617C13.1645 11.2811 12.98 11.2811 12.8021 11.2455C11.8303 11.0544 11.4218 9.94985 11.346 9.07854C11.3197 8.78703 11.2966 8.51818 11.2966 8.22343L11.29 8.22666ZM10.002 8.30764C10.002 8.81618 10.1173 9.22754 10.2754 9.58708C10.2951 9.63242 10.3182 9.67453 10.3413 9.7134C10.4269 9.88183 10.4533 9.92394 10.5587 10.0827C10.6542 10.2252 10.7959 10.3968 10.9145 10.5167C11.3295 10.9248 11.8665 11.226 12.443 11.3459C12.9997 11.4625 13.3489 11.469 13.9057 11.3329C14.2845 11.239 14.6864 11.0738 15.006 10.86C15.085 10.8082 15.1608 10.7499 15.2333 10.6916C15.2695 10.6625 15.3024 10.6365 15.3354 10.6009C15.3749 10.562 15.4046 10.5426 15.4441 10.507C15.4803 10.4713 15.5001 10.4422 15.5363 10.4066C15.7406 10.2057 15.9679 9.83001 16.0733 9.57088C16.182 9.30528 16.2874 8.93278 16.3138 8.63155C16.3237 8.51818 16.3434 8.39186 16.3434 8.26877C16.3434 8.04852 16.294 7.77643 16.2446 7.59181C16.2018 7.42014 16.1095 7.17073 16.0338 7.01525C15.8559 6.66867 15.6648 6.38039 15.3815 6.09859C15.2596 5.97875 15.0916 5.83947 14.9533 5.74553C14.6172 5.52204 14.2384 5.35684 13.8398 5.27263C13.003 5.09772 12.3079 5.21756 11.5865 5.60625C11.3855 5.71314 11.29 5.79412 11.1253 5.92692C10.9935 6.03057 10.9309 6.10507 10.8255 6.2152L10.7366 6.31885C10.6773 6.39335 10.6213 6.46137 10.5686 6.54234C10.2029 7.08327 10.002 7.64039 10.002 8.30764Z" fill="#C7E7DC"/>
<path id="Vector_2" fill-rule="evenodd" clip-rule="evenodd" d="M13.1893 13.7619C13.1893 13.9303 13.1596 13.9012 13.3441 13.9012C13.3935 13.9012 13.3704 13.7975 13.3869 13.6615C13.433 13.2599 13.6472 12.923 13.9601 12.6768C14.1545 12.5246 14.3752 12.4112 14.6157 12.3238C14.7606 12.2719 14.899 12.2363 15.0571 12.1942C15.4854 12.0873 15.907 12.0711 16.3518 12.0711V10.7949C15.6369 10.7949 14.922 11.08 14.3785 11.5172C14.283 11.5917 14.1149 11.744 14.0359 11.8347C14.0161 11.8606 14.0128 11.8671 13.9898 11.8897C13.8942 11.9869 13.7361 12.2104 13.6603 12.3205C13.6076 12.4015 13.5648 12.4792 13.5187 12.5635C13.3375 12.8809 13.1958 13.3927 13.1958 13.7619H13.1893Z" fill="#C7E7DC"/>
</g>
</svg>
