<svg width="36" height="36" viewBox="0 0 36 36" fill="none" xmlns="http://www.w3.org/2000/svg">
<g opacity="0.8">
<path d="M24.8303 19.6948C24.8303 24.4715 20.9701 28.2206 16.2073 28.2206C11.4306 28.2206 7.57031 24.3604 7.57031 19.5976C7.57031 15.4735 13.8189 7.3503 16.2073 3.62891L22.4003 13.3767" stroke="black" stroke-width="1.5" stroke-miterlimit="2.61313" stroke-linecap="round" stroke-linejoin="round"/>
<path d="M26.8836 19.6386H21.1487L26.6475 11.5293L32.1602 19.6386H29.4385M29.3969 19.5969C29.3969 26.8731 23.4954 32.7884 16.2054 32.7884M16.2054 32.7884C8.91535 32.7884 3 26.8731 3 19.5969" stroke="black" stroke-width="1.5" stroke-miterlimit="2.61313" stroke-linecap="round" stroke-linejoin="round"/>
<path d="M3.41406 17.2227L3.66401 16.584" stroke="black" stroke-width="1.5" stroke-miterlimit="2.61313" stroke-linecap="round" stroke-linejoin="round"/>
<path d="M4.40625 14.752L4.65619 14.1133" stroke="black" stroke-width="1.5" stroke-miterlimit="2.61313" stroke-linecap="round" stroke-linejoin="round"/>
<path d="M14.1363 21.7774C14.414 21.9996 14.9973 22.3884 15.8443 22.4717V23.0966C15.8443 23.2771 15.9415 23.3743 16.1498 23.3743H16.2331C16.4414 23.3743 16.5386 23.2632 16.5386 23.0549V22.4717C17.705 22.3329 18.3993 21.5136 18.3993 20.5277C18.3993 18.3199 14.9973 18.6115 14.9973 17.2229C14.9973 16.6814 15.511 16.2092 16.247 16.2092C16.8163 16.2092 17.2606 16.4453 17.4967 16.6119C17.6911 16.723 17.8438 16.7091 17.9549 16.5147L18.0799 16.2787C18.1771 16.0981 18.1632 15.9454 17.9966 15.8343C17.7328 15.6538 17.2467 15.3761 16.5386 15.3344V14.6957C16.5386 14.5152 16.4414 14.418 16.2331 14.418H16.1498C15.9415 14.418 15.8443 14.5291 15.8443 14.7373V15.3344C14.7473 15.5011 14.0252 16.2925 14.0252 17.2507C14.0252 19.3474 17.4273 19.1253 17.4273 20.5694C17.4273 21.222 16.8579 21.583 16.2192 21.583C15.5249 21.583 14.9834 21.2498 14.7057 21.0415C14.5251 20.9304 14.3724 20.9304 14.2474 21.097L14.0947 21.3331C13.9558 21.4858 13.9697 21.6525 14.1363 21.7774Z" fill="black" stroke="black" stroke-width="0.5"/>
</g>
</svg>
