<svg width="35" height="36" viewBox="0 0 35 36" fill="none" xmlns="http://www.w3.org/2000/svg">
<g opacity="0.8">
<path d="M23.9576 18.1309C23.9576 22.1867 23.1732 25.8219 21.9383 28.415C20.6769 31.0641 19.0807 32.3809 17.5647 32.3809C16.0487 32.3809 14.4526 31.0641 13.1911 28.415C11.9563 25.8219 11.1719 22.1867 11.1719 18.1309C11.1719 14.075 11.9563 10.4399 13.1911 7.84671C14.4526 5.19762 16.0487 3.88086 17.5647 3.88086C19.0807 3.88086 20.6769 5.19762 21.9383 7.84671C23.1732 10.4399 23.9576 14.075 23.9576 18.1309Z" stroke="black" stroke-width="1.5"/>
<path d="M14.3668 23.6676C10.8543 21.6397 8.09837 19.1428 6.47005 16.7768C4.8066 14.3598 4.46433 12.3191 5.22233 11.0062C5.98033 9.69331 7.91875 8.96939 10.8437 9.20147C13.7068 9.42865 17.2471 10.5669 20.7596 12.5948C24.2721 14.6228 27.028 17.1196 28.6563 19.4856C30.3198 21.9026 30.6621 23.9433 29.9041 25.2562C29.1461 26.5691 27.2076 27.293 24.2827 27.0609C21.4196 26.8338 17.8792 25.6955 14.3668 23.6676Z" stroke="black" stroke-width="1.5"/>
<path d="M14.3632 12.5941C17.8756 10.5662 21.416 9.42795 24.2791 9.20077C27.204 8.96869 29.1424 9.69262 29.9004 11.0055C30.6584 12.3184 30.3162 14.3591 28.6527 16.7761C27.0244 19.1421 24.2685 21.639 20.756 23.6669C17.2435 25.6948 13.7032 26.8331 10.8401 27.0603C7.91514 27.2923 5.97672 26.5684 5.21872 25.2555C4.46072 23.9426 4.80299 21.9019 6.46643 19.4849C8.09475 17.1189 10.8507 14.6221 14.3632 12.5941Z" stroke="black" stroke-width="1.5"/>
</g>
</svg>
