<svg width="42" height="36" viewBox="0 0 42 36" fill="none" xmlns="http://www.w3.org/2000/svg">
<g opacity="0.8">
<path fill-rule="evenodd" clip-rule="evenodd" d="M21.6116 6.70898H24.4315V25.8845H16.8332C16.2692 23.6286 14.5276 21.9366 11.4536 21.9366C8.37957 21.9366 6.63802 23.6286 6.07404 25.8845H5.25595C5.25595 25.8845 5.25595 25.8845 5.25595 25.3205C5.25595 24.1926 4.12797 22.5006 3 21.9366V6.70899L21.6116 6.70898Z" stroke="black" stroke-width="1.5" stroke-miterlimit="2.61313" stroke-linecap="round" stroke-linejoin="round"/>
<path fill-rule="evenodd" clip-rule="evenodd" d="M11.4606 24.4902C13.1525 24.4902 14.2805 25.6182 14.2805 27.3102C14.2805 29.0021 13.1525 30.1301 11.4606 30.1301C9.7686 30.1301 8.64062 29.0021 8.64062 27.3102C8.64062 25.6182 9.7686 24.4902 11.4606 24.4902Z" stroke="black" stroke-width="1.5" stroke-miterlimit="2.61313" stroke-linecap="round" stroke-linejoin="round"/>
<path fill-rule="evenodd" clip-rule="evenodd" d="M33.984 24.4902C35.676 24.4902 36.8039 25.6182 36.8039 27.3102C36.8039 29.0021 35.676 30.1301 33.984 30.1301C32.292 30.1301 31.1641 29.0021 31.1641 27.3102C31.1641 25.6182 32.292 24.4902 33.984 24.4902Z" stroke="black" stroke-width="1.5" stroke-miterlimit="2.61313" stroke-linecap="round" stroke-linejoin="round"/>
<path fill-rule="evenodd" clip-rule="evenodd" d="M28.1577 11.5195H34.9256L40.0015 17.7234V26.1832H39.1214C38.5574 23.9272 36.8159 22.2353 33.7976 22.2353C30.6678 22.2353 28.9262 23.9272 28.3623 26.1832H27.5938V11.5195H28.1577Z" stroke="black" stroke-width="1.5" stroke-miterlimit="2.61313" stroke-linecap="round" stroke-linejoin="round"/>
<path d="M40.0003 17.3828L28.1406 17.3828" stroke="black" stroke-width="1.5"/>
<path d="M30.5156 11.453L30.5156 17.3828" stroke="black" stroke-width="1.5"/>
<path d="M19.838 6.70898H3.23438V19.7547H19.838V6.70898Z" stroke="black" stroke-width="1.5" stroke-miterlimit="2.61313" stroke-linecap="round" stroke-linejoin="round"/>
<path d="M12.1057 15.0645L12.1068 15.0644C12.4692 15.0581 12.8193 14.9783 13.1512 14.8374L13.1512 14.8374L13.1521 14.837C13.5078 14.6778 13.8161 14.4633 14.0887 14.1939L14.089 14.1935C14.3559 13.9239 14.5753 13.6053 14.7353 13.2378C14.8956 12.8697 14.9787 12.4771 14.9787 12.0543C14.9787 11.6315 14.8956 11.2388 14.7353 10.8707C14.5754 10.5036 14.362 10.1849 14.0891 9.909L14.089 9.90899C13.8219 9.6391 13.5075 9.42464 13.1521 9.26549L13.1517 9.26533C12.8012 9.11187 12.4268 9.03203 12.0405 9.03203C11.6542 9.03203 11.2856 9.11192 10.9352 9.26533C10.5854 9.41851 10.2708 9.63312 10.0035 9.9092C9.73069 10.185 9.51729 10.5037 9.35744 10.8707C9.19711 11.2389 9.11406 11.6376 9.11406 12.0543C9.11406 12.4769 9.19707 12.8755 9.35146 13.2375L9.35145 13.2375L9.35188 13.2384C9.51745 13.605 9.73074 13.9236 9.99789 14.1935C10.265 14.4634 10.5793 14.6778 10.9287 14.8369L10.9287 14.8369L10.9297 14.8373C11.2144 14.9599 11.5054 15.0336 11.8199 15.0582C11.8753 15.0645 11.9488 15.066 12.0063 15.066C12.0355 15.066 12.0612 15.0656 12.0793 15.0652L12.1002 15.0647L12.1057 15.0645ZM12.7779 14.5986L12.7773 14.599C12.5766 14.7314 12.3298 14.8017 12.0405 14.8017C11.7564 14.8017 11.5107 14.7372 11.3112 14.594L11.3112 14.594L11.3091 14.5926C11.1014 14.4592 10.9317 14.267 10.8009 14.026L10.8009 14.026L10.8004 14.0252C10.6638 13.784 10.5661 13.4942 10.5027 13.1544C10.4391 12.814 10.4043 12.4432 10.4043 12.0483C10.4043 11.6534 10.4391 11.2828 10.5026 10.9425C10.5719 10.6025 10.6697 10.312 10.8011 10.064C10.9316 9.81784 11.1011 9.63125 11.3099 9.49133L11.3099 9.49133L11.3104 9.49097C11.5107 9.35299 11.7571 9.28275 12.0464 9.28275C12.3352 9.28275 12.576 9.35276 12.7826 9.49115C12.9854 9.63093 13.1555 9.82378 13.2923 10.0653C13.4289 10.3063 13.5265 10.602 13.5841 10.9354L13.5841 10.9354L13.5843 10.9361C13.6478 11.2765 13.6826 11.6472 13.6826 12.0483C13.6826 12.4554 13.6478 12.826 13.5843 13.1603L13.5843 13.1604C13.5208 13.5002 13.4231 13.79 13.2865 14.0312L13.2861 14.032C13.1552 14.273 12.9856 14.4652 12.7779 14.5986L12.7779 14.5986Z" fill="black" stroke="black" stroke-width="0.1" stroke-linecap="round" stroke-linejoin="round"/>
<path d="M14.9273 15.6904C14.9549 15.6904 14.9773 15.668 14.9773 15.6404V14.3984C14.9773 14.3708 14.9549 14.3484 14.9273 14.3484C14.5174 14.3484 14.1368 14.4344 13.7801 14.6003C13.4245 14.7656 13.1157 14.9864 12.8543 15.2688C12.5935 15.5506 12.3862 15.875 12.2324 16.2357L12.2324 16.2357L12.2319 16.2369C12.0954 16.5802 12.0244 16.9417 12.0125 17.3148L12.0125 17.3148V17.3164V17.3164V17.3164V17.3164V17.3164V17.3164V17.3164V17.3165V17.3165V17.3165V17.3165V17.3165V17.3165V17.3165V17.3165V17.3165V17.3165V17.3165V17.3165V17.3166V17.3166V17.3166V17.3166V17.3166V17.3166V17.3166V17.3166V17.3167V17.3167V17.3167V17.3167V17.3167V17.3167V17.3168V17.3168V17.3168V17.3168V17.3168V17.3169V17.3169V17.3169V17.3169V17.317V17.317V17.317V17.317V17.3171V17.3171V17.3171V17.3171V17.3172V17.3172V17.3172V17.3173V17.3173V17.3173V17.3174V17.3174V17.3174V17.3174V17.3175V17.3175V17.3175V17.3176V17.3176V17.3177V17.3177V17.3177V17.3178V17.3178V17.3178V17.3179V17.3179V17.318V17.318V17.318V17.3181V17.3181V17.3182V17.3182V17.3183V17.3183V17.3184V17.3184V17.3184V17.3185V17.3185V17.3186V17.3186V17.3187V17.3187V17.3188V17.3188V17.3189V17.3189V17.319V17.319V17.3191V17.3191V17.3192V17.3193V17.3193V17.3194V17.3194V17.3195V17.3195V17.3196V17.3197V17.3197V17.3198V17.3198V17.3199V17.32V17.32V17.3201V17.3201V17.3202V17.3203V17.3203V17.3204V17.3205V17.3205V17.3206V17.3207V17.3207V17.3208V17.3209V17.3209V17.321V17.3211V17.3211V17.3212V17.3213V17.3214V17.3214V17.3215V17.3216V17.3216V17.3217V17.3218V17.3219V17.3219V17.322V17.3221V17.3222V17.3223V17.3223V17.3224V17.3225V17.3226V17.3226V17.3227V17.3228V17.3229V17.323V17.3231V17.3231V17.3232V17.3233V17.3234V17.3235V17.3236V17.3237V17.3237V17.3238V17.3239V17.324V17.3241V17.3242V17.3243V17.3244V17.3245V17.3246V17.3246V17.3247V17.3248V17.3249V17.325V17.3251V17.3252V17.3253V17.3254V17.3255V17.3256V17.3257V17.3258V17.3259V17.326V17.3261V17.3262V17.3263V17.3264V17.3265V17.3266V17.3267V17.3268V17.3269V17.327V17.3271V17.3272V17.3273V17.3274V17.3275V17.3276V17.3277V17.3279V17.328V17.3281V17.3282V17.3283V17.3284V17.3285V17.3286V17.3287V17.3289V17.329V17.3291V17.3292V17.3293V17.3294V17.3295V17.3297V17.3298V17.3299V17.33V17.3301V17.3302V17.3304V17.3305V17.3306V17.3307V17.3308V17.331V17.3311V17.3312V17.3313V17.3315V17.3316V17.3317V17.3318V17.332V17.3321V17.3322V17.3323V17.3325V17.3326V17.3327V17.3328V17.333V17.3331V17.3332V17.3334V17.3335V17.3336V17.3338V17.3339V17.334V17.3342V17.3343V17.3344V17.3346V17.3347V17.3348V17.335V17.3351V17.3353V17.3354V17.3355V17.3357V17.3358V17.3359V17.3361V17.3362V17.3364V17.3365V17.3367V17.3368V17.3369V17.3371V17.3372V17.3374V17.3375V17.3377V17.3378V17.338V17.3381V17.3382V17.3384V17.3385V17.3387V17.3388V17.339V17.3391V17.3393V17.3394V17.3396V17.3398V17.3399V17.3401V17.3402V17.3404V17.3405V17.3407V17.3408V17.341V17.3411V17.3413V17.3415V17.3416V17.3418V17.3419V17.3421V17.3423V17.3424V17.3426V17.3427V17.3429V17.3431V17.3432V17.3434V17.3435V17.3437V17.3439V17.344V17.3442V17.3444V17.3445V17.3447V17.3449V17.345V17.3452V17.3454V17.3455V17.3457V17.3459V17.3461V17.3462V17.3464V17.3466V17.3467V17.3469V17.3471V17.3473V17.3474V17.3476V17.3478V17.348V17.3481V17.3483V17.3485V17.3487V17.3488V17.349V17.3492V17.3494V17.3496V17.3497V17.3499V17.3501V17.3503V17.3505V17.3506V17.3508V17.351V17.3512V17.3514V17.3516V17.3518V17.3519V17.3521V17.3523V17.3525V17.3527V17.3529V17.3531V17.3532V17.3534V17.3536V17.3538V17.354V17.3542V17.3544V17.3546V17.3548V17.355V17.3552V17.3554V17.3555V17.3557V17.3559V17.3561V17.3563V17.3565V17.3567V17.3569V17.3571V17.3573V17.3575V17.3577V17.3579V17.3581V17.3583V17.3585V17.3587V17.3589V17.3591V17.3593V17.3595V17.3597V17.3599V17.3601V17.3603V17.3605V17.3608V17.361V17.3612V17.3614V17.3616V17.3618V17.362V17.3622V17.3624V17.3626V17.3628V17.363V17.3633V17.3635V17.3637V17.3639V17.3641V17.3643V17.3645V17.3647V17.365V17.3652V17.3654V17.3656V17.3658V17.366V17.3663V17.3665V17.3667V17.3669V17.3671V17.3673V17.3676V17.3678V17.368V17.3682V17.3684V17.3687V17.3689V17.3691V17.3693V17.3696V17.3698V17.37V17.3702V17.3705V17.3707V17.3709V17.3711V17.3714V17.3716V17.3718V17.372V17.3723V17.3725V17.3727V17.373V17.3732V17.3734V17.3737V17.3739V17.3741V17.3743V17.3746V17.3748V17.375V17.3753V17.3755V17.3758V17.376V17.3762V17.3765V17.3767V17.3769V17.3772V17.3774V17.3776V17.3779V17.3781V17.3784V17.3786V17.3788V17.3791V17.3793V17.3796V17.3798V17.3801V17.3803V17.3805V17.3808V17.381V17.3813V17.3815V17.3818V17.382V17.3823V17.3825V17.3827C12.0125 17.4104 12.0349 17.4327 12.0625 17.4327H12.22C12.2477 17.4327 12.27 17.4104 12.27 17.3827C12.27 17.0891 12.3382 16.8332 12.4668 16.6253C12.596 16.4162 12.7822 16.2408 13.0155 16.0995C13.2556 15.9638 13.5363 15.8572 13.8579 15.7919C14.181 15.7263 14.5394 15.6904 14.9273 15.6904Z" fill="black" stroke="black" stroke-width="0.1" stroke-linecap="round" stroke-linejoin="round"/>
</g>
</svg>
