<svg width="34" height="36" viewBox="0 0 34 36" fill="none" xmlns="http://www.w3.org/2000/svg">
<g opacity="0.8">
<path fill-rule="evenodd" clip-rule="evenodd" d="M16.1579 4.20898V32.209C16.1579 32.209 4.48472 29.0047 3.07031 8.80144C3.07031 8.80144 13.5212 6.38298 16.1579 4.21772V4.20898Z" stroke="black" stroke-width="1.5" stroke-miterlimit="2.61313" stroke-linecap="round" stroke-linejoin="round"/>
<path fill-rule="evenodd" clip-rule="evenodd" d="M16.1562 4.20898V32.209C16.1562 32.209 27.8295 29.0047 29.2439 8.80144C29.2439 8.80144 18.793 6.38298 16.1562 4.21772V4.20898Z" stroke="black" stroke-width="1.5" stroke-miterlimit="2.61313" stroke-linecap="round" stroke-linejoin="round"/>
<path d="M16.1546 25.0337C20.5244 25.0337 24.0669 21.4912 24.0669 17.1214C24.0669 12.7515 20.5244 9.20898 16.1546 9.20898C11.7847 9.20898 8.24219 12.7515 8.24219 17.1214C8.24219 21.4912 11.7847 25.0337 16.1546 25.0337Z" fill="#FFFAF1" stroke="black" stroke-width="1.5" stroke-miterlimit="2.61313" stroke-linecap="round" stroke-linejoin="round"/>
<path fill-rule="evenodd" clip-rule="evenodd" d="M14.6274 21.9214C15.0851 22.1553 15.6038 22.2875 16.153 22.2875C16.7021 22.2875 17.2208 22.1553 17.6785 21.9214C18.787 21.3621 19.5396 20.2128 19.5396 18.9009C19.5396 18.8195 19.5396 18.7483 19.5294 18.667C19.5294 18.667 19.5294 18.6568 19.5294 18.6466H19.5396C19.5498 18.4331 19.4989 16.8262 16.153 11.9648C12.8172 16.8262 12.7561 18.4331 12.7663 18.6466H12.7765C12.7765 18.667 12.7765 18.667 12.7765 18.667C12.7663 18.7483 12.7663 18.8195 12.7663 18.9009C12.7663 20.223 13.5189 21.3722 14.6274 21.9214Z" stroke="black" stroke-width="1.5" stroke-miterlimit="2.61313" stroke-linecap="round" stroke-linejoin="round"/>
</g>
</svg>
